<?xml version="1.0" standalone="yes"?>

<svg version="1.1" viewBox="0.0 0.0 960.0 540.0" fill="none" stroke="none" stroke-linecap="square" stroke-miterlimit="10" xmlns="http://www.w3.org/2000/svg" xmlns:xlink="http://www.w3.org/1999/xlink"><clipPath id="g2af8d1d783_0_0.0"><path d="m0 0l960.0 0l0 540.0l-960.0 0l0 -540.0z" clip-rule="nonzero"></path></clipPath><g clip-path="url(#g2af8d1d783_0_0.0)"><path fill="#ffffff" d="m0 0l960.0 0l0 540.0l-960.0 0z" fill-rule="evenodd"></path><path fill="#000000" fill-opacity="0.0" d="m282.89337 124.56562l366.25 0l0 0c47.979736 0 86.875 44.729927 86.875 99.90708c0 55.17717 -38.895264 99.90709 -86.875 99.90709l-366.25 0l0 0c-47.979736 0 -86.875 -44.72992 -86.875 -99.90709c0 -55.177155 38.895264 -99.90708 86.875 -99.90708z" fill-rule="evenodd"></path><path stroke="#b7b7b7" stroke-width="1.0" stroke-linejoin="round" stroke-linecap="butt" d="m282.89337 124.56562l366.25 0l0 0c47.979736 0 86.875 44.729927 86.875 99.90708c0 55.17717 -38.895264 99.90709 -86.875 99.90709l-366.25 0l0 0c-47.979736 0 -86.875 -44.72992 -86.875 -99.90709c0 -55.177155 38.895264 -99.90708 86.875 -99.90708z" fill-rule="evenodd"></path></g></svg>

